<svg width="507" height="481" viewBox="0 0 507 481" fill="none" xmlns="http://www.w3.org/2000/svg">
<path fill-rule="evenodd" clip-rule="evenodd" d="M135.725 121.414C153.952 110.952 172.18 100.489 190.476 90.1375L251.626 55.0176C252.089 54.7494 252.615 54.6075 253.152 54.6057C253.688 54.6039 254.217 54.7425 254.686 55.0075L350.836 109.598C350.894 109.63 350.945 109.676 350.984 109.73C351.003 109.756 351.018 109.784 351.031 109.814C351.045 109.846 351.055 109.879 351.061 109.914C351.072 109.98 351.069 110.048 351.051 110.113C351.032 110.177 351 110.237 350.956 110.288C338.689 124.894 324.852 137.844 309.446 149.138C309.43 149.151 309.416 149.166 309.406 149.184C309.395 149.202 309.388 149.222 309.384 149.242C309.376 149.284 309.382 149.326 309.403 149.363C309.423 149.4 309.455 149.428 309.494 149.444C309.533 149.459 309.576 149.46 309.616 149.448C347.329 134.914 383.149 116.664 417.076 94.6975C417.106 94.678 417.131 94.6509 417.148 94.6189C417.165 94.5869 417.174 94.551 417.173 94.5147C417.172 94.4785 417.161 94.4431 417.142 94.412C417.124 94.381 417.097 94.3553 417.066 94.3376L253.386 0.107546C253.126 -0.0391211 252.862 -0.0357642 252.596 0.117556L115.586 79.6776L65.9257 108.368C65.7782 108.452 65.6101 108.495 65.4393 108.492C65.2686 108.488 65.1013 108.438 64.9557 108.348C42.6256 94.6176 21.1456 81.1375 0.555661 64.7875C0.369016 64.6409 0.218992 64.6709 0.105588 64.8776C-0.0743434 65.2176 -0.0242946 65.5142 0.255613 65.7675C0.308835 65.8148 0.35156 65.874 0.380857 65.9412C0.410154 66.0085 0.425412 66.0822 0.425657 66.1576C0.105588 83.9442 0.00231673 98.9409 0.115598 111.148C0.555661 158.081 6.56225 204.571 18.1356 250.618C36.0757 319.778 68.6256 381.788 123.966 428.038C133.776 436.228 146.466 443.128 160.036 449.938C176.389 458.138 192.506 466.744 208.386 475.758C208.697 475.935 209.049 476.028 209.408 476.028C209.767 476.028 210.121 475.935 210.436 475.758C240.336 459.138 268.996 440.768 295.596 418.518C322.956 395.631 346.612 369.444 366.566 339.958C380.096 320.278 414.456 265.068 385.766 246.798C374.616 239.698 364.156 241.548 351.966 245.568C337.759 250.268 323.509 254.844 309.216 259.298C269.829 271.584 229.706 280.748 188.846 286.788C163.892 290.381 138.789 292.421 113.536 292.908C113.465 292.909 113.394 292.921 113.327 292.942C113.27 292.96 113.215 292.986 113.164 293.017C113.052 293.087 112.962 293.185 112.901 293.302C112.841 293.419 112.813 293.55 112.821 293.681C112.829 293.812 112.872 293.939 112.946 294.048L141.746 335.838C141.952 336.144 142.242 336.288 142.616 336.268C207.636 333.298 273.466 320.258 335.506 300.628C335.562 300.609 335.622 300.608 335.679 300.624C335.736 300.641 335.787 300.673 335.825 300.718C335.864 300.763 335.888 300.818 335.895 300.877C335.902 300.935 335.892 300.995 335.866 301.048C330.586 311.558 324.626 320.728 316.996 330.408C298.489 353.901 278.279 374.354 256.366 391.768C246.386 399.701 232.102 410.171 213.516 423.178C212.829 423.658 211.856 424.141 210.596 424.628C210.451 424.684 210.295 424.71 210.138 424.703C209.981 424.696 209.827 424.657 209.686 424.588C207.63 423.58 205.566 422.574 203.5 421.567C190.639 415.3 177.648 408.97 165.466 401.578C147.066 390.408 130.546 374.458 117.376 357.638C85.1456 316.498 66.0457 265.768 56.8556 214.408C54.4823 203.161 52.2989 190.008 50.3057 174.948C50.1256 173.608 50.0323 172.508 50.0256 171.648C50.0222 171.489 50.0557 171.332 50.1233 171.188C50.1909 171.044 50.2909 170.917 50.4156 170.818C53.109 168.658 55.9557 166.741 58.9557 165.068C84.6677 150.721 110.196 136.068 135.725 121.414ZM341.196 455.087C421.216 412.457 466.316 332.837 487.986 247.617C503.236 188.767 511.116 124.788 503.676 64.1375C503.622 63.7175 503.436 63.6442 503.116 63.9175C460.876 100.427 414.666 130.957 364.836 156.078C359.082 158.971 353.052 161.818 346.746 164.617C325.536 174.038 303.646 183.177 281.036 188.607C280.667 188.696 280.282 188.79 279.883 188.887C269.003 191.531 247.586 196.736 250.046 178.408C250.372 175.994 250.856 174.174 251.496 172.948C260.476 155.818 273.766 141.358 288.906 129.057C289.059 128.931 289.049 128.821 288.876 128.727C288.749 128.667 288.649 128.664 288.576 128.718C283.076 132.518 277.639 136.438 272.266 140.477C251.716 157.237 233.116 175.708 215.236 195.278C197.949 214.198 182.806 234.738 169.806 256.898C169.786 256.93 169.777 256.967 169.778 257.005C169.779 257.042 169.79 257.079 169.811 257.11C169.832 257.142 169.862 257.167 169.896 257.182C169.93 257.197 169.968 257.203 170.006 257.198C203.772 253.084 237.162 247.011 270.176 238.977C320.636 226.707 369.836 206.807 415.236 181.708C417.444 180.488 419.653 179.27 421.862 178.052C433.455 171.66 445.043 165.271 456.526 158.677C456.872 158.478 457.019 158.574 456.966 158.968C454.892 174.734 452.432 190.397 449.586 205.958C440.166 257.418 420.626 307.917 393.166 351.327C360.286 402.747 315.296 447.977 261.796 477.927C260.609 478.587 259.522 479.421 258.536 480.427C258.142 480.827 258.226 481.004 258.786 480.957C287.296 478.577 316.246 468.767 341.196 455.087Z" fill="#585DEC"/>
</svg>
